<?xml version="1.0" standalone="no"?><svg xmlns="http://www.w3.org/2000/svg" viewBox="0 0 1440 320"><path fill="black" fill-opacity="1" d="M0,128L26.7,128C53.3,128,107,128,160,117.3C213.3,107,267,85,320,90.7C373.3,96,427,128,480,128C533.3,128,587,96,640,106.7C693.3,117,747,171,800,181.3C853.3,192,907,160,960,138.7C1013.3,117,1067,107,1120,96C1173.3,85,1227,75,1280,96C1333.3,117,1387,171,1413,197.3L1440,224L1440,320L1413.3,320C1386.7,320,1333,320,1280,320C1226.7,320,1173,320,1120,320C1066.7,320,1013,320,960,320C906.7,320,853,320,800,320C746.7,320,693,320,640,320C586.7,320,533,320,480,320C426.7,320,373,320,320,320C266.7,320,213,320,160,320C106.7,320,53,320,27,320L0,320Z"></path></svg>