<?xml version="1.0" standalone="no"?><svg xmlns="http://www.w3.org/2000/svg" viewBox="0 0 1440 320"><path fill="#8CBFDE" fill-opacity="1" d="M0,192L21.8,165.3C43.6,139,87,85,131,96C174.5,107,218,181,262,213.3C305.5,245,349,235,393,213.3C436.4,192,480,160,524,128C567.3,96,611,64,655,74.7C698.2,85,742,139,785,138.7C829.1,139,873,85,916,85.3C960,85,1004,139,1047,176C1090.9,213,1135,235,1178,245.3C1221.8,256,1265,256,1309,213.3C1352.7,171,1396,85,1418,42.7L1440,0L1440,320L1418.2,320C1396.4,320,1353,320,1309,320C1265.5,320,1222,320,1178,320C1134.5,320,1091,320,1047,320C1003.6,320,960,320,916,320C872.7,320,829,320,785,320C741.8,320,698,320,655,320C610.9,320,567,320,524,320C480,320,436,320,393,320C349.1,320,305,320,262,320C218.2,320,175,320,131,320C87.3,320,44,320,22,320L0,320Z"></path></svg>